<svg version="1.0" xmlns="http://www.w3.org/2000/svg" width="1600" height="1600" viewBox="0 0 1200 1200">
  <path d="m584 236-14 9c0 2 23 35 24 34l21-44c-3-3-12-7-14-7l-17 8zm34 6a1764 1764 0 0 1-20 44 1077 1077 0 0 0 53 78l3 4 22-41 23-42-73-44-6-3-2 4zm-126 48-71 41v21l44 54 44 54a10111 10111 0 0 0 82-173l2 3 1 2 2-3v-5c-2-2-3-3-4 0l-1 2-13-18-14-19-72 41z"/>
  <path d="m682 329-24 43c-1 1-1 1-3-1-1-2-1-2-3-1v6c2 2 2 2 4 0l2-2 34 50 57 82 16-29 16-29V331l-35-20-38-22-4-2-22 42zm-128 50-40 86 26 31 26 32 42-77 42-77-2-4-52-76c-1-1-10 17-42 85zm-133 73v91l19 11 19 11 19-36 23-50 6-13 2 2 2 2 1-2c1-3 1-3-1-5l-2-2-1 2-1 2a1665 1665 0 0 1-86-103v90zm228-63-79 144-2-2h-3c-1 2-1 5 1 6 1 1 2 1 3-2 1-2-1-4 40 46l34 42 4-2 30-18 28-17 40-73-91-133-5 9zm118 98-14 25 11 16 12 17 3-1c2-1 2-5 2-42v-41l-14 26zm-259-9a9405 9405 0 0 0-43 91l59 33c1 1 6-8 20-33 10-19 19-35 18-36l-26-32-25-30-3 7zm239 33c-1 1-1 3 1 5 1 3 1 3-15 33l-17 31 53-31c1 0-1-4-9-15-10-15-10-15-9-19v-5c-2-3-2-3-4 0zm-198 62c-10 19-18 33-17 34a1314 1314 0 0 0 69 39c3 0 32-16 36-19a1843 1843 0 0 0-69-86c-1-1-10 14-19 32zM375 745c-4 3-5 6-5 37s0 33 7 36c4 2 23 2 28 0 5-3 6-4 6-32 0-31 0-35-4-39l-3-3h-13l-16 1zm22 36c0 28 0 28-7 28-6 0-6 2-6-27l1-27 6-1 6 1v26zm33 1v37h13v-75h-13v38zm33 0v37h34v-10h-20v-65h-14v38zm47 0v37h16c25 0 26-1 26-23-1-10-1-11-3-13s-2-3-1-3c3-1 4-8 4-17s-1-14-5-17c-2-2-4-2-20-2h-17v37zm26-28c2 0 2 1 2 11l-1 10-6 1h-7v-23h5l7 1zm1 44 1 11h-14v-23h13l1 11zm33-20v34l3 3 3 4h28l3-4 3-3v-68h-13v32c0 30 0 31-2 32h-10c-2-1-2-2-2-32v-32h-13v34zm63-33c-4 2-5 5-5 20 0 19 1 20 16 21h9v11c0 11-1 12-6 12-4 0-6-2-6-8v-4h-13v7c0 12 4 15 20 15 17 0 19-2 19-21s-2-22-16-22l-9-1-1-11 1-10h4c6 0 7 1 7 7v5h13v-8c0-8 0-8-3-11s-3-3-15-3l-15 1zm46 4v5h13v65h13v-65h14v-10h-40v5zm54 33v37h36v-10h-23v-23h19v-11h-19v-21h22v-10h-35v38zm51 0v37h14v-15c0-15 0-15 2-15s3 3 8 15l6 15h15l-7-15-6-15 3-1c5-3 6-6 6-22 0-22 0-22-25-22h-16v37zm27-15c0 13 0 13-9 13h-4v-26h12l1 13zM247 905c0 2 0 2 3 2 2 0 3-1 3-3s0-2-3-2-3 0-3 3zm28 0c0 2 1 2 3 2 3 0 3 0 3-2 0-3 0-3-3-3-2 0-3 0-3 3zm102 3c0 4 0 5-1 4l-4-1c-4 0-5 2-5 13 0 10 0 10 3 11h7l3 1h2v-34h-2c-3 0-3 0-3 6zm0 16c0 7-1 8-2 8-2 0-2-1-3-9 0-8 0-8 2-8 2 1 2 1 2 9zm192-5v17h3c2 0 2 0 2-10 1-10 1-10 3-10 1 0 2 0 2 10s0 10 3 10h2v-12l-1-12h-7c-2 1-2 1-2-4 0-6 0-6-2-6h-3v17zm109 0v17h3c2 0 2 0 2-9 0-10 1-12 3-12 3 0 3 2 3 12 0 9 0 9 3 9h2v-11c0-8 0-11-2-12-1-2-4-2-7-1-2 1-2 1-2-4 0-6 0-6-2-6h-3v17zm45-11c0 5 0 5-2 4-4-2-8-1-8 2l-1 10c0 7 0 8 2 10s4 2 7 1h2l3 1h2v-34h-2c-3 0-3 0-3 5zm0 14c0 7-1 10-3 10s-2-1-2-9 0-8 2-8 2 1 3 6zm104-14c0 5 0 5-2 4-4-2-8-1-8 2l-1 10c0 7 0 8 2 10s4 2 7 1h2l3 1h2v-34h-2c-3 0-3 0-3 5zm0 14c0 7-1 10-3 10s-2-1-2-9 0-8 2-8 2 1 3 6zm29-17c0 2 0 2 3 2 2 0 3-1 3-3s0-2-3-2-3 0-3 3zm92 0c0 2 1 2 3 2s2 0 2-2 0-3-2-3-3 1-3 3zm58 0c0 2 1 2 3 2s2 0 2-2 0-3-2-3-3 1-3 3zm36 14v17h3c2 0 2 0 2-10 1-10 1-10 3-11 2 0 2 0 2 10v11h6v-10c0-8 0-11-2-13-1-2-4-3-7-1-2 1-2 1-2-4 0-6 0-6-2-6h-3v17zm-936-14-1 15c0 16 0 16 8 16 6 0 8-1 8-6 0-4 0-4-2-4s-3 1-3 3-1 3-3 3h-2l-1-12v-12h3c3 0 3 0 3 3s0 3 3 3c2 0 2 0 2-4l-1-5h-14zm126 4-1 2-1 2 1 2 1 9c0 7 0 8 2 10 3 3 7 3 7 0l-1-2c-2-1-2-3-2-9s0-8 2-8l1-2-1-2-2-2c0-2-1-2-3-2s-3 0-3 2zm29 0-1 2-2 2 2 2 1 10c0 8 0 9 2 10 3 2 6 1 6-1l-1-2c-2-1-2-3-2-9s0-8 2-8l1-2-1-2-2-2-2-2c-2 0-3 1-3 2zm197 0-1 2-1 2 1 2 1 9c0 7 0 8 2 10 3 3 7 3 7 0l-1-2c-2-1-2-3-2-9s0-8 2-8l1-2-1-2-2-2c0-2-1-2-3-2s-3 0-3 2zm96 0-1 2-2 2 2 2 1 10c0 8 0 9 2 10 3 2 6 1 6-1l-1-2c-2-1-2-3-2-9s0-8 2-8l1-2-1-2-2-2-2-2c-2 0-3 1-3 2zm206 0-1 2-2 2 2 2 1 10c0 10 1 11 6 11 2 0 3-3 0-4l-1-9c0-6 0-8 2-8l1-2-1-2-2-2-2-2c-2 0-3 1-3 2zm306 0-1 2-2 2 2 2 1 10c0 8 0 9 2 10 3 2 6 1 6-1l-1-2c-2-1-2-3-2-9s0-8 2-8l1-2-1-2-2-2-2-2c-2 0-3 1-3 2zm-936 4-1 11c0 11 0 12 8 12 6 0 7-1 8-11 0-12-1-14-8-14-4 0-6 1-7 2zm9 11c0 8 0 8-2 8-3 0-3 0-3-8 0-9 0-9 3-9 2 0 2 0 2 9zm13 0v12h3c2 0 2 0 2-9 0-10 1-12 3-12 3 0 3 2 3 12 0 9 0 9 3 9 2 0 2 0 2-10s1-10 2-10c2 0 3 0 3 10s0 10 3 10h2v-24h-21l-3-1h-2v13zm34 3v16h3c2 0 2 0 2-4 0-5 0-5 3-4h5c2-1 2-1 2-12v-10l-3-1h-7l-2-1h-3v16zm10-3c0 7-1 8-2 8-2 0-2-1-3-7 0-8 0-10 3-10l1 9zm14-11-1 11c0 11 0 12 7 12 5 0 8-1 8-4 0-2 0-3-2-3s-3 1-3 2l-2 1c-3 0-3 0-3-3v-4h10v-6c0-5 0-6-2-7-3-2-11-1-12 1zm9 6c0 3 0 3-2 3-3 0-3 0-3-3 0-4 0-4 3-4 2 0 2 0 2 4zm28 5v12h5v-25h-5v13zm28 0v12h6v-25h-6v13zm12-12 5 22c0 1 1 2 4 2a536 536 0 0 0 6-25c-3 0-3 0-5 11-1 9-2 9-4-4-1-6-1-7-4-7l-2 1zm25 0c-2 1-2 3-2 11 0 10 0 11 2 12 3 2 10 1 12-1 3-3 3-5 0-5l-4 1c0 1-1 2-3 2s-2-1-2-4v-3h11v-5c0-7-2-9-8-9l-6 1zm9 6c0 3-1 3-3 4-3 0-3 0-3-4 0-3 0-3 3-3 2 0 3 1 3 3zm24-6-1 12c0 10 0 10 3 11h7l3 1h2v-25h-2l-3 1h-9zm9 12c0 7-1 8-2 8-2 0-2-1-3-9 0-8 0-8 2-8 2 1 3 1 3 9zm37 0 2 12h8l2-11c3-14 3-14 0-14s-3 1-4 9l-2 9-2-8c-1-10-1-10-4-10h-3l3 13zm22-12c-2 1-2 3-2 12 0 10 0 10 3 11h7l3 1h2v-25h-2l-3 1h-8zm8 11c0 8-1 8-2 8-2 0-2 0-3-6 0-9 0-10 3-10l1 8zm13 1v12h6v-10c0-10 1-10 2-10 2 0 3 0 3 10s0 10 3 10h2v-24h-10l-3-1h-3v13zm40-12-1 12c0 10 0 10 3 11h7l3 1h2v-25h-2l-3 1h-9zm9 12c0 7-1 8-2 8-2 0-2-1-3-9 0-8 0-8 2-8 2 1 3 1 3 9zm15-12c-2 1-2 3-2 11l1 11h8c1-1 1 0 1 1-1 3-1 3-5 4-3 0-4 0-4 2s1 2 5 2c9 0 9 0 9-17v-15h-2l-3 1h-8zm8 11c0 8 0 8-2 8-3 0-3 0-3-7 0-8 0-9 3-9 1 1 2 2 2 8zm15-11c-2 1-2 3-2 11 0 12 1 13 9 13 5-1 7-2 7-5s-4-3-5 0l-3 1c-2 0-3-1-3-4v-3h11v-5c0-4 0-6-2-7-1-2-9-3-12-1zm9 7c0 3 0 3-3 3s-3 0-3-4c0-3 0-3 3-3 2 0 3 1 3 4zm62 5v12h3c2 0 2 0 2-9s0-11 4-11c1 0 2-1 2-3s-2-3-4 0h-2l-2-2h-3v13zm18-11c-2 1-2 3-2 10l1 11c1 2 10 2 13 1 2-1 2-2 2-11 0-10 0-11-2-12-3-2-11-1-12 1zm9 11v8h-3c-2-1-3-1-3-7 0-9 0-10 3-10s3 0 3 9zm13-1c0 11 0 11 3 12h7l3 1h2v-25h-2c-3 0-3 0-3 10-1 10-1 11-3 11l-2-11c0-10 0-10-2-10h-3v12zm25-11c-2 1-2 3-2 11l1 11h8c1-1 1 0 1 1 0 3-1 3-5 4-3 0-4 0-4 2s1 2 5 2c9 0 9 0 9-17v-15h-2l-3 1h-8zm8 11c0 8 0 8-2 8-3 0-3 0-3-7 0-8 0-9 3-9 1 1 2 2 2 8zm72-11c-2 1-3 18-1 21 1 2 5 3 8 2h2l3 1h2v-25h-2l-3 1h-9zm8 5 1 7c0 6-1 8-3 8s-2-1-2-8c0-8 0-9 2-9l2 2zm31-5c-2 1-2 3-2 12 0 10 0 10 3 11h7l3 1h2v-25h-2l-3 1h-8zm8 11c0 8-1 8-2 8-2 0-2 0-3-6 0-9 0-10 3-10 1 0 2 2 2 8zm56 1v12h3c2 0 2 0 2-10 1-9 1-9 3-10 1 0 2-1 2-3s-1-3-3 0h-2l-2-2h-3v13zm16 0v12h5v-25h-5v13zm12-12 2 13 2 11h8l2-11 3-13-3-1c-2 1-2 1-4 10-2 10-2 10-4-2-1-7-1-8-4-8l-2 1zm24 1-1 11c0 11 0 12 7 12 5 0 8-1 8-4 0-2 0-3-2-3s-3 1-3 2l-2 1c-3 0-3 0-3-3v-4h10v-6c0-5 0-6-2-7-3-2-11-1-12 1zm9 6c0 3 0 3-2 3-3 0-3 0-3-3 0-4 0-4 3-4 2 0 2 0 2 4zm12 5v12h6v-10c0-10 1-10 2-10 2 0 2 0 3 10 0 10 0 10 3 10h2v-12l-1-12h-9l-3-1h-3v13zm35 0v12h5v-25h-5v13zm13 0v12h3c2 0 2 0 2-9 0-10 1-12 3-12 3 0 3 2 3 12 0 9 0 9 3 9h2v-11c0-8 0-11-2-12-1-2-4-2-7-1h-2l-2-1h-3v13zm25-12c-1 1-2 2-2 6 0 5 1 7 6 7l4 2v4c-1 2-5 1-5-1l-2-1c-2 0-3 1-3 2 0 3 3 5 7 5 5 0 8-3 8-7 0-5-2-7-6-7-3 0-3-1-4-4 0-2 0-3 2-3l2 2 3 1c2 0 2 0 2-2l-2-4h-10zm20 12v12h5v-25h-5v13zm14-12-1 11 1 11h8c1-1 1-1 1 1 0 3-1 3-5 4-3 0-4 0-4 2s1 2 4 2l7-1 3-1v-30h-2l-3 1h-9zm9 11c0 7-1 8-3 8s-2 0-2-8 0-8 2-8c2 1 2 1 2 8zm53-10c-2 1-2 9-1 11l5 1c3 0 4 1 4 3 0 4-3 5-4 3-2-3-6-3-6 0s4 5 9 5c5-1 6-2 6-8 0-4-1-6-6-6l-4-3c0-4 3-5 5-3 1 2 5 3 5 1l-2-4c-1-3-9-3-11 0zm-285 8c0 2 1 2 6 2s6 0 6-2-1-2-6-2-6 0-6 2z"/>
</svg>
